PathFileType	4	(X/Y/Z)	C:/Users/beibeiliu/ov580/test_trc/User3\sequence.45_training_dense_right.trc
DataRate	CameraRate	NumFrames	NumMarkers	Units	OrigDataRate	OrigDataStartFrame	OrigNumFrames
120	120	18	19	mm	120	1	107
Frame#	Time	ThumbCMC			ThumbMCP			ThumbIP			ThumbTip			IndexMCP			IndexPIP			IndexTip			MiddleMCP			MiddlePIP			MiddleTip			RingMCP			RingPIP			RingTip			PinkyMCP			PinkyPIP			PinkyTip			BackHand1			BackHand2			BackHand3	
		X0	Y0	Z0	X1	Y1	Z1	X2	Y2	Z2	X3	Y3	Z3	X4	Y4	Z4	X5	Y5	Z5	X6	Y6	Z6	X7	Y7	Z7	X8	Y8	Z8	X9	Y9	Z9	X10	Y10	Z10	X11	Y11	Z11	X12	Y12	Z12	X13	Y13	Z13	X14	Y14	Z14	X15	Y15	Z15	X16	Y16	Z16	X17	Y17	Z17	X18	Y18	Z18	
0	0	139.139	31.5261	39.3892	112.094	25.7719	20.2767	94.7475	18.5256	-3.48292	83.7307	10.983	-21.1535	144.432	39.6801	-39.2893	133.346	33.3756	-66.4714	122.909	29.4685	-85.4006	172.892	38.9733	-47.063	164.32	34.5946	-73.7264	161.294	25.3621	-104.645	191.568	30.9039	-40.1821	192.316	27.8728	-66.2354	195.205	20.0889	-93.248	211.458	20.444	-24.4644	221.196	16.4899	-45.0681	230.312	10.638	-63.891	195.22	43.0244	9.90263	198.236	48.0742	40.6599	164.946	51.4397	27.0274	
1	0.00833333	135.612	32.2876	34.6376	115.203	25.6852	20.582	95.3356	19.4387	-5.48616	80.3443	11.9211	-18.544	143.489	39.5083	-39.2226	130.225	35.6228	-65.8783	124.465	27.7716	-89.6458	168.211	39.3187	-45.7688	161.757	34.0004	-77.7396	158.782	25.3079	-106.628	188.009	31.6484	-42.4772	195.226	26.9417	-63.7024	191.904	19.3807	-93.0684	209.463	19.4715	-24.1129	220.338	15.5602	-46.631	224.666	8.82928	-68.3886	193.965	42.0252	9.82706	197.557	46.259	40.0451	163.627	52.3502	23.7418	
2	0.0166667	134.348	34.0269	39.6963	114.513	26.9626	17.6274	93.2202	21.6462	-4.65746	82.2554	14.4525	-21.1455	143.009	41.2675	-40.0334	129.551	37.8215	-62.3324	124.825	30.2485	-86.9971	166.9	40.8405	-51.0813	160.656	35.8761	-77.55	157.783	25.4035	-108.177	190.069	32.4386	-41.4658	190.24	29.0411	-63.9937	191.272	19.299	-92.0529	209.116	22.0165	-25.7839	218.808	15.72	-44.4582	224.102	10.3071	-64.9291	194.189	43.4159	8.44324	199.962	47.5524	36.9281	165.244	53.9516	24.9661	
3	0.025	132.976	34.0197	36.7147	112.563	27.6781	20.1667	93.9722	22.4287	-6.78964	80.1457	15.0135	-22.4834	141.683	42.0641	-37.8845	129.409	36.7066	-66.504	126.374	29.8068	-88.9163	171.541	40.5327	-49.2403	164.99	34.69	-78.8514	160.843	23.9292	-106.224	188.808	33.5273	-42.9307	191.71	28.3492	-67.9598	190.046	18.6298	-92.3914	208.886	21.409	-24.4224	217.438	16.0379	-42.594	225.706	8.19808	-68.2626	191.826	45.3885	8.8266	198.174	45.1061	40.2806	161.292	53.257	22.0204	
4	0.0333333	133.575	35.7037	35.0753	115.642	28.2974	17.9669	96.2219	23.7201	-6.53363	83.9461	15.8939	-25.2609	144.944	43.6887	-42.1836	132.693	39.7555	-64.3191	129.874	30.2724	-88.6263	169.452	42.8732	-45.5834	165.008	35.1037	-78.4769	160.295	25.7139	-104.528	190.132	33.3683	-38.0631	190.71	29.1671	-68.4699	192.21	19.3929	-94.013	211.518	21.0673	-21.9394	220.094	16.8619	-47.4693	226.285	7.32246	-68.5017	194.15	45.3829	12.2868	202.81	47.0439	40.3558	168.372	53.1806	25.8382	
5	0.0416667	137.134	36.2056	32.8524	121.348	28.8922	15.0122	103.226	24.1268	-5.45403	90.7381	17.985	-25.41	146.567	45.5897	-40.9557	141.376	39.6943	-68.3883	129.089	31.3596	-91.6994	175.793	44.2041	-46.4839	172.203	37.6451	-76.0211	164.336	26.3022	-103.135	192.552	35.8112	-41.9292	197.4	30.7497	-65.7765	193.495	20.7846	-89.964	216.556	23.3219	-25.4523	220.969	19.8084	-44.6416	230.645	9.39701	-70.2568	201.238	45.3257	9.51611	202.587	47.5769	37.8489	170.931	54.8746	21.8348	
6	0.05	141.258	30.4553	35.0179	119.96	26.492	17.5461	101.638	22.4828	-8.03335	90.9848	15.1915	-25.3703	150.765	42.1685	-39.9034	140.001	37.7259	-66.6184	139.192	29.1848	-90.2023	175.586	42.0429	-45.7259	172.719	35.0403	-74.0101	168.241	23.3884	-103.462	199.036	32.6189	-40.0641	200.824	27.9008	-64.0012	199.842	18.7412	-88.5434	215.494	21.2623	-21.3602	226.444	16.1279	-44.8971	231.807	8.63793	-69.411	199.871	43.6481	14.6881	201.821	43.5146	42.5056	170.227	50.4524	24.769	
7	0.0583333	141.751	28.1566	40.7778	121.865	24.5105	18.1883	105.321	20.3101	-6.75488	94.3422	14.5452	-27.4283	149.91	44.576	-38.0438	144.155	39.0355	-66.5974	137.978	33.7288	-90.9043	178.347	42.6878	-45.8266	173.753	37.5464	-73.779	171.957	27.0263	-106.349	200.426	33.9645	-39.4371	202.551	30.9207	-63.9668	198.113	25.1602	-87.7063	216.767	23.2026	-19.4352	223.716	21.0322	-41.501	232.791	15.2664	-66.9399	200.568	45.2686	12.1775	204.058	43.2132	46.0484	169.279	50.6608	30.0442	
8	0.0666667	146.174	29.1132	36.5551	123.998	24.6192	19.0521	109.929	20.8505	-4.99734	97.7597	15.0192	-25.4014	152.916	50.6765	-36.6212	143.769	50.3033	-62.2055	140.227	46.4654	-84.2467	180.04	50.0977	-42.3239	174.707	46.5601	-74.0388	169.45	40.8811	-98.854	198.098	41.0292	-34.0632	199.354	39.3305	-60.0493	198.847	33.5796	-90.0388	218.903	27.8101	-21.4811	222.184	25.9449	-45.0732	231.335	19.2199	-65.5192	206.715	46.5626	15.1041	209.469	42.8047	44.0299	174.909	50.6032	32.8651	
9	0.075	146.312	29.8374	41.8687	126.086	24.3353	17.9802	111.047	21.7591	-5.44192	100.265	17.246	-28.0241	157.383	57.2846	-34.1568	144.856	58.475	-55.8846	140.362	56.1161	-84.4541	179.03	58.1501	-41.8618	176.444	56.4678	-71.4366	170.465	53.6271	-97.8449	201.222	45.3324	-33.1154	200.239	45.1856	-59.1304	198.681	39.6067	-87.5136	222.849	30.077	-21.9987	224.697	28.6655	-45.3452	226.715	23.5505	-68.5603	203.828	46.2181	18.8608	211.551	42.116	43.9742	179.63	52.8544	35.4704	
10	0.0833333	151.044	30.9676	35.7273	127.079	24.7411	13.4437	110.91	18.9272	-9.5379	103.744	13.2811	-31.7326	159.756	58.8949	-31.6981	148.324	61.3384	-61.569	148.076	60.2163	-84.2696	186.727	59.3972	-42.0578	185.86	60.6588	-68.7738	180.2	56.7125	-99.8694	207.812	46.7125	-37.7148	207.95	44.6179	-61.9622	205.511	33.712	-88.7163	227.845	29.5131	-23.1926	228.99	25.6367	-46.8558	228.326	11.7002	-71.8155	207.405	48.0278	19.7672	212.9	44.9183	47.7601	180.613	51.969	33.8121	
11	0.0916667	150.544	22.2371	35.5957	134.579	13.0153	11.0808	114.863	4.72248	-15.9198	104.326	-3.90689	-35.0565	160.709	46.6606	-39.5507	154.394	47.255	-67.0405	149.54	43.8115	-92.4155	189.077	48.3169	-42.9268	191.284	48.1721	-74.7866	186.761	41.6721	-105.235	211.999	35.432	-39.7787	215.177	26.0087	-64.6995	209.88	2.78195	-86.836	228.064	21.9918	-27.724	233.616	7.56426	-49.5755	228.745	-15.6001	-61.5648	211.11	43.401	11.7474	212.001	41.4525	43.5209	177.012	47.1974	24.953	
12	0.1	146.633	12.9707	32.2407	133.968	-2.74565	10.3191	117.933	-15.9852	-9.19741	108.625	-28.0036	-28.2653	157.439	27.6848	-46.1057	152.54	21.8386	-71.3246	145.244	13.9582	-91.4882	187.713	30.3868	-52.4001	193.042	20.7759	-81.2689	191.152	4.17436	-106.475	209.911	15.3424	-43.5979	215.65	-6.78659	-64.1212	206.054	-35.7747	-67.984	229.864	5.50227	-27.5278	229.024	-15.8337	-43.2299	217.003	-41.7127	-39.9223	206.634	37.3866	8.45273	208.331	37.3183	38.4358	174.097	40.6851	23.1294	
13	0.108333	148.659	3.61777	32.4743	132.369	-17.7841	15.8755	120.456	-34.3192	-3.51576	114.458	-51.6157	-18.1797	155.694	7.09099	-42.0203	146.63	-4.65682	-69.0438	139.373	-26.5181	-88.5965	185.614	8.18713	-48.0862	184.071	-8.94087	-75.8062	182.225	-43.7861	-91.5006	205.278	-9.83346	-41.4717	200.484	-35.6428	-51.1976	197.071	-61.7047	-35.5924	223.951	-13.1086	-22.1109	217.703	-42.3932	-28.9316	203.42	-56.3093	-13.6536	202.105	26.0366	8.71482	205.531	31.6528	34.1134	169.725	31.8454	21.2404	
14	0.116667	148.194	3.98597	36.4675	129.953	-19.1302	24.3631	120.785	-39.0804	4.62277	122.197	-61.0858	-15.1094	149.535	0.727146	-41.5885	140.789	-20.4522	-63.5048	132.492	-46.7686	-66.6007	175.575	-5.81248	-46.816	174.4	-29.9604	-66.9456	166.295	-67.9608	-59.6776	198.205	-25.9128	-33.769	189.926	-57.2615	-31.6022	180.198	-67.578	-2.27151	214.189	-28.5317	-17.7451	207.2	-56.3867	-14.3003	189.825	-57.2588	13.7166	206.643	17.6047	6.0456	207.332	28.5103	34.0511	173.224	26.9728	18.1981	
15	0.125	150.197	11.5831	39.3492	133.196	-13.4636	29.3287	120.174	-35.4386	13.7254	125.763	-57.765	-0.978891	147.498	-0.799634	-36.3854	132.228	-26.6496	-51.2197	124.515	-52.8368	-40.7411	170.618	-15.4835	-43.2807	157.322	-45.05	-51.2708	150.349	-70.3752	-27.5032	185.331	-33.4661	-26.2309	181.036	-61.2557	-16.2711	172.783	-59.8959	18.6673	205.778	-38.4038	-11.7318	192.751	-59.6882	1.48466	182.902	-49.1215	28.8681	211.154	13.988	5.65957	217.175	24.8653	29.9902	179.931	30.188	21.4865	
16	0.133333	158.105	16.647	42.7834	132.27	-6.86172	34.4799	121.953	-31.8843	18.4581	126.922	-55.9434	8.73157	146.251	-4.05024	-32.0506	126.625	-28.2243	-39.2347	122.643	-53.7396	-18.3563	166.821	-19.5421	-34.4599	149.522	-49.2045	-35.8466	146.928	-66.4844	-2.83914	181.629	-35.5806	-15.7547	167.649	-61.0594	2.07408	165.143	-49.351	33.6607	200.293	-43.7054	-2.96861	180.582	-57.4917	16.8219	178.761	-39.7295	40.4959	212.036	9.30655	6.72355	223.035	21.9797	32.5271	187.094	30.063	22.3259	
17	0.141667	159.165	23.0271	43.4847	136.132	-2.20732	37.0651	117.809	-22.95	29.6686	120.968	-48.1913	20.1284	146.661	-7.0126	-27.3195	124.709	-30.5129	-29.1784	118.2	-46.3129	-3.7322	162.994	-27.9233	-27.8058	142.578	-53.5276	-19.3267	136.84	-56.5789	17.2089	172.808	-40.2089	-7.99319	160.941	-59.0014	17.0887	159.498	-42.4027	42.0776	188.548	-47.8976	5.38249	173.325	-55.0126	28.8613	176.953	-38.1932	51.9425	213.955	3.33187	7.60191	226.876	18.8525	33.7694	189.341	31.5818	21.8741	
